Coordinates
version=1
nRows=14
nColumns=40
inDegrees=yes

Units are S.I. units (second, meters, Newtons, ...)
If the header above contains a line with 'inDegrees', this indicates whether rotational values are in degrees (yes) or radians (no).

endheader
time	pelvis_tilt	pelvis_list	pelvis_rotation	pelvis_tx	pelvis_ty	pelvis_tz	hip_flexion_r	hip_adduction_r	hip_rotation_r	knee_angle_r	knee_angle_r_beta	ankle_angle_r	subtalar_angle_r	mtp_angle_r	hip_flexion_l	hip_adduction_l	hip_rotation_l	knee_angle_l	knee_angle_l_beta	ankle_angle_l	subtalar_angle_l	mtp_angle_l	lumbar_extension	lumbar_bending	lumbar_rotation	arm_flex_r	arm_add_r	arm_rot_r	elbow_flex_r	pro_sup_r	wrist_flex_r	wrist_dev_r	arm_flex_l	arm_add_l	arm_rot_l	elbow_flex_l	pro_sup_l	wrist_flex_l	wrist_dev_l
      8.20000000	     13.44683774	      1.74160908	    -18.39571506	      0.04722867	      1.31480483	      0.02025476	     34.94717530	    -20.28778137	     -2.44115063	     84.64803464	      1.47738691	     -8.78894453	    -30.57725695	      0.00000000	     41.14624936	     -9.61097529	    -13.59572934	     58.05388859	      1.01323150	     -3.34539736	     -4.29969229	      0.00000000	    -58.72346726	      0.80615826	     -8.53014027	     61.70600378	     -7.88875331	    -12.37512244	     37.01874461	     88.43856343	      0.00000000	      0.00000000	     56.56401922	     -9.28633406	    -23.37530228	     42.88998339	     87.50311602	      0.00000000	      0.00000000
      8.21700000	     13.19063314	      1.49386984	    -19.33294993	      0.04700260	      1.31435361	      0.02062451	     38.24461801	    -19.49909889	     -0.34099808	     88.70745697	      1.54823720	     -6.92513819	    -30.38281714	      0.00000000	     37.47875273	    -10.33786081	    -15.77335339	     53.65836670	      0.93651517	     -5.13404391	     -2.79853111	      0.00000000	    -58.49548383	      0.27332114	     -7.70248344	     61.83895072	     -8.01628366	    -12.09691613	     36.72463127	     88.44531578	      0.00000000	      0.00000000	     56.59702976	     -9.25226762	    -23.38113039	     42.55957839	     87.47131931	      0.00000000	      0.00000000
      8.23300000	     12.78753896	      1.33653742	    -20.25022247	      0.04674392	      1.31357098	      0.02097735	     41.85236379	    -18.61772048	      1.69615223	     92.50995802	      1.61460336	     -5.03752755	    -30.20523194	      0.00000000	     34.03115891	    -10.93389192	    -17.98651947	     49.47496546	      0.86350104	     -7.23143976	     -1.41919476	      0.00000000	    -58.08520080	     -0.28022456	     -6.87357171	     61.91588509	     -8.16465345	    -11.86412963	     36.47189252	     88.43360143	      0.00000000	      0.00000000	     56.65207389	     -9.21359863	    -23.26668906	     42.18623351	     87.49429512	      0.00000000	      0.00000000
      8.25000000	     12.26355937	      0.98073059	    -20.57914732	      0.04665567	      1.31272050	      0.02070212	     45.21532571	    -17.94012026	      2.78675281	     95.72479643	      1.67071287	     -3.39988008	    -30.40138677	      0.00000000	     31.17854094	    -11.38887775	    -19.35542750	     45.87355949	      0.80064465	     -9.89347307	     -0.20063587	      0.00000000	    -57.63673572	     -0.19879844	     -6.20482391	     62.04453203	     -8.23253715	    -11.68415105	     36.16112333	     88.44298477	      0.00000000	      0.00000000	     56.64743197	     -9.20366034	    -23.22156695	     41.94267713	     87.45302119	      0.00000000	      0.00000000
      8.26700000	     11.90022089	      1.04395604	    -21.60641096	      0.04638108	      1.31170823	      0.02104621	     49.07903342	    -17.06194124	      4.72565281	     98.54482818	      1.71993171	     -2.14473698	    -30.10671011	      0.00000000	     28.33850287	    -11.80231722	    -21.47064839	     42.84180036	      0.74773047	    -12.34631476	      0.60385934	      0.00000000	    -57.17682894	     -0.98219710	     -5.55718664	     62.05819665	     -8.28108823	    -11.56437826	     36.00184940	     88.42911436	      0.00000000	      0.00000000	     56.63929556	     -9.30165167	    -23.01465632	     41.79113656	     87.49320448	      0.00000000	      0.00000000
      8.28300000	     11.40258160	      0.80178543	    -21.85958519	      0.04626060	      1.31081969	      0.02065229	     52.58407982	    -16.49654954	      5.51382030	    100.72329518	      1.75795313	     -1.09596759	    -30.32248596	      0.00000000	     26.16914171	    -12.18831734	    -22.35029172	     40.52457227	      0.70728721	    -15.16977172	      1.08772611	      0.00000000	    -56.73497144	     -0.92253562	     -5.08757396	     62.12872553	     -8.25032102	    -11.55268036	     35.81882416	     88.42788205	      0.00000000	      0.00000000	     56.60433755	     -9.45657408	    -22.88404842	     41.75174197	     87.45174850	      0.00000000	      0.00000000
      8.30000000	     11.04116720	      0.78146797	    -22.33893068	      0.04611055	      1.30989591	      0.02067402	     56.11832330	    -15.84620550	      6.59364107	    102.28141892	      1.78514752	     -0.48246793	    -30.27821944	      0.00000000	     24.17847106	    -12.43327980	    -23.25535193	     38.83745079	      0.67784139	    -17.29623618	      1.21432772	      0.00000000	    -56.38302042	     -1.22567430	     -4.65864829	     62.10826230	     -8.15905586	    -11.75534039	     35.81517410	     88.41911533	      0.00000000	      0.00000000	     56.61510494	     -9.50596550	    -22.69609502	     41.82254277	     87.47941323	      0.00000000	      0.00000000
      8.31700000	     10.72292777	      0.68018624	    -22.50799603	      0.04607643	      1.30912513	      0.02054981	     59.38562268	    -15.34971846	      7.31351049	    103.01953311	      1.79803005	     -0.49600391	    -30.02287664	      0.00000000	     22.53952632	    -12.60835510	    -23.42392003	     37.81528253	      0.66000119	    -18.70963823	      1.06995072	      0.00000000	    -56.18781146	     -1.22478993	     -4.29940724	     62.08701681	     -8.02655608	    -12.27022088	     35.94046225	     88.43259295	      0.00000000	      0.00000000	     56.69017912	     -9.43657291	    -22.70028411	     41.97110858	     87.47572207	      0.00000000	      0.00000000
      8.33300000	     10.50482253	      0.56407946	    -22.55773125	      0.04610414	      1.30858919	      0.02042356	     62.35933282	    -14.94299994	      7.86707935	    103.00353443	      1.79775082	     -1.04862122	    -29.65201373	      0.00000000	     21.16944657	    -12.76863842	    -23.11781977	     37.48830668	      0.65429438	    -19.51818358	      0.62092034	      0.00000000	    -56.16780926	     -1.13777313	     -4.00825507	     62.06692883	     -7.86603776	    -12.93147895	     36.17823999	     88.42352329	      0.00000000	      0.00000000	     56.78804014	     -9.31759003	    -22.76032234	     42.23062118	     87.47712735	      0.00000000	      0.00000000
      8.35000000	     10.56848623	      0.33003607	    -22.53323781	      0.04620293	      1.30859469	      0.02047019	     64.47193583	    -14.68588345	      8.10597853	    102.33780624	      1.78613167	     -1.52004965	    -29.16328399	      0.00000000	     19.91970683	    -12.96558705	    -22.25139390	     37.84930098	      0.66059492	    -19.74499793	      0.29557984	      0.00000000	    -56.48060233	     -1.02239360	     -3.79206059	     62.20595830	     -7.79314755	    -13.13660287	     36.19282635	     88.19351656	      0.00000000	      0.00000000	     56.96640577	     -9.25629470	    -22.71814704	     42.42301575	     87.15173966	      0.00000000	      0.00000000
      8.36700000	     10.39200660	      0.22879755	    -22.59505407	      0.04625802	      1.30828473	      0.02072494	     66.49593229	    -14.41531347	      8.11235845	    101.02695050	      1.76325292	     -2.61551784	    -29.12788813	      0.00000000	     19.50862363	    -13.29203225	    -21.33131112	     39.22277409	      0.68456655	    -19.37578846	     -0.91443918	      0.00000000	    -56.54870874	     -1.01704267	     -3.63295703	     62.26608421	     -7.44724923	    -14.00413070	     36.28567179	     88.43243005	      0.00000000	      0.00000000	     57.03539867	     -9.26994245	    -22.79927445	     42.86045494	     87.45150660	      0.00000000	      0.00000000
      8.38300000	     10.40945213	      0.01117314	    -22.56688506	      0.04648227	      1.30844632	      0.02098415	     67.69693041	    -14.29230517	      7.85274349	     99.08815928	      1.72941463	     -3.58445326	    -28.90224373	      0.00000000	     19.32233302	    -13.65908303	    -19.81358511	     41.32855117	      0.72131929	    -18.38744597	     -1.88402632	      0.00000000	    -56.86531491	     -0.92471337	     -3.52014275	     62.39605778	     -7.20218382	    -14.50293659	     36.29696435	     88.42901995	      0.00000000	      0.00000000	     57.08774962	     -9.32335144	    -22.80419671	     43.28269251	     87.46231635	      0.00000000	      0.00000000
      8.40000000	     10.58888088	     -0.14792277	    -22.60673537	      0.04658390	      1.30884921	      0.02141543	     68.06257774	    -14.26143371	      7.47395344	     96.61905049	      1.68632055	     -4.44952754	    -28.73425813	      0.00000000	     19.37176779	    -14.00958593	    -18.28642231	     43.99686485	      0.76789015	    -17.28889613	     -2.95092223	      0.00000000	    -57.28682055	     -0.98708167	     -3.48541551	     62.57732457	     -7.01179196	    -14.83648240	     36.21220245	     88.41831299	      0.00000000	      0.00000000	     57.19016567	     -9.40405021	    -22.75978802	     43.64792755	     87.43913135	      0.00000000	      0.00000000
      8.41700000	     10.93454503	     -0.14169593	    -22.81524371	      0.04656333	      1.30942130	      0.02202273	     67.62421051	    -14.35931949	      7.02034933	     93.65933710	      1.63466381	     -4.98666979	    -28.74921404	      0.00000000	     19.71323165	    -14.28484425	    -16.85377950	     47.26745129	      0.82497265	    -16.31687804	     -3.96675268	      0.00000000	    -57.76042123	     -1.32517991	     -3.56016330	     62.78092143	     -6.87653918	    -15.03652266	     36.06151568	     88.42736265	      0.00000000	      0.00000000	     57.31942062	     -9.51673505	    -22.68677463	     43.88763437	     87.39541867	      0.00000000	      0.00000000
